<svg width="32" height="32" viewBox="0 0 32 32" fill="none" xmlns="http://www.w3.org/2000/svg">
<path d="M21.414 3.27197C21.7889 3.64703 21.9995 4.15565 21.9995 4.68597C21.9995 5.2163 21.7889 5.72492 21.414 6.09997L11.514 16L21.414 25.9C21.7783 26.2772 21.9799 26.7824 21.9753 27.3068C21.9708 27.8312 21.7604 28.3328 21.3896 28.7036C21.0188 29.0744 20.5172 29.2848 19.9928 29.2893C19.4684 29.2939 18.9632 29.0923 18.586 28.728L7.27197 17.414C6.89703 17.0389 6.6864 16.5303 6.6864 16C6.6864 15.4696 6.89703 14.961 7.27197 14.586L18.586 3.27197C18.961 2.89703 19.4696 2.6864 20 2.6864C20.5303 2.6864 21.0389 2.89703 21.414 3.27197Z" fill="#2C3639"/>
</svg>
