<svg width="34" height="34" viewBox="0 0 34 34" fill="none" xmlns="http://www.w3.org/2000/svg">
<path d="M28.3333 5.66667H5.66667C4.10834 5.66667 2.8475 6.94167 2.8475 8.50001L2.83334 25.5C2.83334 27.0583 4.10834 28.3333 5.66667 28.3333H28.3333C29.8917 28.3333 31.1667 27.0583 31.1667 25.5V8.50001C31.1667 6.94167 29.8917 5.66667 28.3333 5.66667ZM27.7667 11.6875L17.7508 17.9492C17.2975 18.2325 16.7025 18.2325 16.2492 17.9492L6.23334 11.6875C6.09128 11.6078 5.96689 11.5 5.86768 11.3708C5.76847 11.2416 5.69651 11.0936 5.65615 10.9358C5.61579 10.778 5.60788 10.6136 5.63289 10.4526C5.6579 10.2916 5.71531 10.1374 5.80165 9.99926C5.88799 9.86112 6.00146 9.74193 6.1352 9.64891C6.26893 9.5559 6.42015 9.49098 6.5797 9.45809C6.73926 9.42521 6.90382 9.42504 7.06344 9.4576C7.22306 9.49015 7.37441 9.55476 7.50834 9.6475L17 15.5833L26.4917 9.6475C26.6256 9.55476 26.777 9.49015 26.9366 9.4576C27.0962 9.42504 27.2608 9.42521 27.4203 9.45809C27.5799 9.49098 27.7311 9.5559 27.8648 9.64891C27.9985 9.74193 28.112 9.86112 28.1984 9.99926C28.2847 10.1374 28.3421 10.2916 28.3671 10.4526C28.3921 10.6136 28.3842 10.778 28.3439 10.9358C28.3035 11.0936 28.2315 11.2416 28.1323 11.3708C28.0331 11.5 27.9087 11.6078 27.7667 11.6875Z" fill="white"/>
</svg>
