<svg width="20" height="20" viewBox="0 0 20 20" fill="none" xmlns="http://www.w3.org/2000/svg">
<path fill-rule="evenodd" clip-rule="evenodd" d="M9.08334 0.833313C7.76551 0.833456 6.4669 1.14929 5.2962 1.75437C4.12551 2.35946 3.1168 3.23619 2.35451 4.31116C1.59223 5.38614 1.09855 6.62809 0.914813 7.93304C0.731073 9.23799 0.862616 10.568 1.29843 11.8116C1.73424 13.0553 2.46164 14.1765 3.41974 15.0813C4.37784 15.9861 5.53875 16.6483 6.8053 17.0123C8.07185 17.3763 9.40717 17.4317 10.6995 17.1736C11.9918 16.9156 13.2035 16.3518 14.2332 15.5293L17.6019 18.8981C17.7748 19.065 18.0064 19.1574 18.2467 19.1553C18.4871 19.1533 18.717 19.0569 18.8869 18.8869C19.0569 18.7169 19.1533 18.487 19.1554 18.2467C19.1575 18.0063 19.0651 17.7748 18.8981 17.6019L15.5293 14.2331C16.4992 13.0194 17.1065 11.5564 17.2815 10.0126C17.4566 8.46883 17.1921 6.90702 16.5186 5.50693C15.8451 4.10685 14.7899 2.9254 13.4745 2.09858C12.1591 1.27176 10.637 0.833179 9.08334 0.833313ZM3.58334 9.08331C3.58334 8.36104 3.7256 7.64584 4.002 6.97855C4.2784 6.31126 4.68353 5.70495 5.19425 5.19423C5.70497 4.6835 6.31129 4.27838 6.97858 4.00198C7.64587 3.72557 8.36107 3.58331 9.08334 3.58331C9.80561 3.58331 10.5208 3.72557 11.1881 4.00198C11.8554 4.27838 12.4617 4.6835 12.9724 5.19423C13.4831 5.70495 13.8883 6.31126 14.1647 6.97855C14.4411 7.64584 14.5833 8.36104 14.5833 9.08331C14.5833 10.542 14.0039 11.941 12.9724 12.9724C11.941 14.0039 10.542 14.5833 9.08334 14.5833C7.62465 14.5833 6.2257 14.0039 5.19425 12.9724C4.1628 11.941 3.58334 10.542 3.58334 9.08331Z" fill="white"/>
</svg>
