<svg width="32" height="32" viewBox="0 0 32 32" fill="none" xmlns="http://www.w3.org/2000/svg">
<path fill-rule="evenodd" clip-rule="evenodd" d="M1.8752 5.758C-1.90735e-07 7.5145 0 10.3435 0 16C0 21.6565 -1.90735e-07 24.4855 1.8752 26.242C3.7488 28 6.7664 28 12.8 28H19.2C25.2336 28 28.2512 28 30.1248 26.242C32 24.4855 32 21.6565 32 16C32 10.3435 32 7.5145 30.1248 5.758C28.2512 4 25.2336 4 19.2 4H12.8C6.7664 4 3.7488 4 1.8752 5.758ZM17.2 13C17.2 12.7016 17.0736 12.4155 16.8485 12.2045C16.6235 11.9935 16.3183 11.875 16 11.875C15.6817 11.875 15.3765 11.9935 15.1515 12.2045C14.9264 12.4155 14.8 12.7016 14.8 13V14.0515L13.8288 13.5265C13.5542 13.3894 13.2336 13.3577 12.9346 13.4379C12.6355 13.5182 12.3814 13.7041 12.2257 13.9566C12.0701 14.2092 12.0252 14.5084 12.1004 14.7914C12.1755 15.0744 12.365 15.3189 12.6288 15.4735L13.6 15.9985L12.6288 16.525C12.353 16.6742 12.1517 16.92 12.0691 17.2083C11.9866 17.4967 12.0297 17.8039 12.1888 18.0625C12.3479 18.3211 12.6101 18.5098 12.9177 18.5872C13.2252 18.6645 13.553 18.6242 13.8288 18.475L14.8 17.9485V19C14.8 19.2984 14.9264 19.5845 15.1515 19.7955C15.3765 20.0065 15.6817 20.125 16 20.125C16.3183 20.125 16.6235 20.0065 16.8485 19.7955C17.0736 19.5845 17.2 19.2984 17.2 19V17.95L18.1712 18.475C18.447 18.6242 18.7748 18.6645 19.0823 18.5872C19.3899 18.5098 19.6521 18.3211 19.8112 18.0625C19.9703 17.8039 20.0134 17.4967 19.9309 17.2083C19.8483 16.92 19.647 16.6742 19.3712 16.525L18.4 16L19.3712 15.475C19.647 15.3258 19.8483 15.08 19.9309 14.7917C20.0134 14.5033 19.9703 14.1961 19.8112 13.9375C19.6521 13.6789 19.3899 13.4902 19.0823 13.4128C18.7748 13.3355 18.447 13.3758 18.1712 13.525L17.2 14.05V13ZM7.5728 11.875C7.89106 11.875 8.19628 11.9935 8.42133 12.2045C8.64637 12.4155 8.7728 12.7016 8.7728 13V14.05L9.7424 13.525C10.0182 13.3758 10.346 13.3355 10.6535 13.4128C10.9611 13.4902 11.2233 13.6789 11.3824 13.9375C11.5415 14.1961 11.5846 14.5033 11.5021 14.7917C11.4195 15.08 11.2182 15.3258 10.9424 15.475L9.9712 16L10.9424 16.525C11.079 16.5989 11.1987 16.6972 11.2947 16.8145C11.3907 16.9317 11.4612 17.0655 11.5021 17.2083C11.5429 17.3511 11.5534 17.5 11.5328 17.6466C11.5123 17.7931 11.4612 17.9345 11.3824 18.0625C11.3036 18.1905 11.1987 18.3028 11.0736 18.3928C10.9486 18.4828 10.8058 18.5489 10.6535 18.5872C10.5012 18.6255 10.3424 18.6353 10.1861 18.616C10.0297 18.5968 9.87897 18.5489 9.7424 18.475L8.7728 17.95V19C8.7728 19.2984 8.64637 19.5845 8.42133 19.7955C8.19628 20.0065 7.89106 20.125 7.5728 20.125C7.25454 20.125 6.94932 20.0065 6.72427 19.7955C6.49923 19.5845 6.3728 19.2984 6.3728 19V17.9485L5.4 18.4735C5.12544 18.6106 4.80482 18.6423 4.50576 18.5621C4.20671 18.4818 3.95257 18.2959 3.79694 18.0434C3.64132 17.7908 3.59636 17.4916 3.67155 17.2086C3.74674 16.9256 3.93621 16.6811 4.2 16.5265L5.1712 16L4.2 15.475C4.06343 15.4011 3.94371 15.3028 3.84768 15.1855C3.75166 15.0683 3.6812 14.9345 3.64035 14.7917C3.59949 14.6489 3.58902 14.5 3.60956 14.3534C3.63009 14.2069 3.68121 14.0655 3.76 13.9375C3.83879 13.8095 3.94372 13.6972 4.06878 13.6072C4.19384 13.5172 4.33659 13.4511 4.48887 13.4128C4.64116 13.3745 4.80001 13.3647 4.95634 13.384C5.11267 13.4032 5.26343 13.4511 5.4 13.525L6.3728 14.0515V13C6.3728 12.7016 6.49923 12.4155 6.72427 12.2045C6.94932 11.9935 7.25454 11.875 7.5728 11.875ZM25.6288 13C25.6288 12.7016 25.5024 12.4155 25.2773 12.2045C25.0523 11.9935 24.7471 11.875 24.4288 11.875C24.1105 11.875 23.8053 11.9935 23.5803 12.2045C23.3552 12.4155 23.2288 12.7016 23.2288 13V14.0515L22.2576 13.5265C21.983 13.3894 21.6624 13.3577 21.3634 13.4379C21.0643 13.5182 20.8102 13.7041 20.6545 13.9566C20.4989 14.2092 20.454 14.5084 20.5292 14.7914C20.6043 15.0744 20.7938 15.3189 21.0576 15.4735L22.0288 15.9985L21.056 16.525C20.7802 16.6742 20.5789 16.92 20.4963 17.2083C20.4138 17.4967 20.4569 17.8039 20.616 18.0625C20.7751 18.3211 21.0373 18.5098 21.3449 18.5872C21.6524 18.6645 21.9802 18.6242 22.256 18.475L23.2288 17.9485V19C23.2288 19.2984 23.3552 19.5845 23.5803 19.7955C23.8053 20.0065 24.1105 20.125 24.4288 20.125C24.7471 20.125 25.0523 20.0065 25.2773 19.7955C25.5024 19.5845 25.6288 19.2984 25.6288 19V17.95L26.6 18.475C26.8758 18.6242 27.2036 18.6645 27.5111 18.5872C27.8187 18.5098 28.0809 18.3211 28.24 18.0625C28.3991 17.8039 28.4422 17.4967 28.3597 17.2083C28.2771 16.92 28.0758 16.6742 27.8 16.525L26.8288 16L27.8 15.475C28.0758 15.3258 28.2771 15.08 28.3597 14.7917C28.4422 14.5033 28.3991 14.1961 28.24 13.9375C28.0809 13.6789 27.8187 13.4902 27.5111 13.4128C27.2036 13.3355 26.8758 13.3758 26.6 13.525L25.6288 14.05V13Z" fill="white"/>
</svg>
