<svg width="1434" height="178" viewBox="0 0 1434 178" fill="none" xmlns="http://www.w3.org/2000/svg">
<path d="M468.109 34.2994C545.576 111.473 619.385 66.455 646.606 34.2994C646.606 34.2994 716.666 -22.1813 772 34.2994V178H0V58.2911C10.4124 46.9617 48.105 32.7499 115.577 66.5383C183.049 100.327 294.52 34.2994 294.52 34.2994C294.52 34.2994 390.641 -42.8742 468.109 34.2994Z" fill="#2C3639"/>
<path d="M965.891 34.2994C888.424 111.473 814.615 66.455 787.394 34.2994C787.394 34.2994 717.334 -22.1813 662 34.2994V178H1434V58.2911C1423.59 46.9617 1385.9 32.7499 1318.42 66.5383C1250.95 100.327 1139.48 34.2994 1139.48 34.2994C1139.48 34.2994 1043.36 -42.8742 965.891 34.2994Z" fill="#2C3639"/>
</svg>
